<svg width="103" height="76" viewBox="0 0 103 76" fill="none" xmlns="http://www.w3.org/2000/svg">
<path d="M70.9014 35.8998C70.7179 40.1896 68.0546 42.7509 63.7755 42.7509H57.8564V32.949C57.8613 32.494 58.0891 30.3126 61.8312 28.9812L63.7513 28.3386L64.1389 28.3551C66.0244 28.4357 67.7595 29.2367 69.0247 30.6097C70.3204 32.0159 70.9869 33.8949 70.9014 35.8998ZM57.8564 17.6853H60.9027C62.9893 17.6853 64.6238 18.2408 65.6298 19.2911C66.4731 20.1718 66.8684 21.3611 66.8052 22.8258C66.6693 25.9654 64.0205 26.8646 61.6839 27.6582C59.676 28.3401 58.5206 29.1203 57.8564 29.8754V17.6853ZM70.9222 30.0657C69.5082 28.6965 67.6714 27.7947 65.7797 27.5195C67.6405 26.6149 69.281 25.2406 69.281 22.8662C69.281 19.6131 66.6912 16.3304 60.9053 16.3304H55.1121L55.4038 17.476L55.3376 42.9435L55.0536 44.2946H63.7687H63.7722C69.1561 44.2946 73.214 40.786 73.4202 35.9522C73.5119 33.8047 72.6246 31.7146 70.9222 30.0657Z" fill="#B89238"/>
<path d="M49.447 42.7507H35.3062V16.3305H32.8563L32.7876 42.9167L32.4813 44.3077L49.8569 44.3122L49.447 42.7507Z" fill="#B89238"/>
<path d="M83.5097 32.572L89.2327 20.721L93.869 30.618C89.3688 30.4619 86.8388 30.7312 83.5097 32.572ZM97.1383 32.2086C99.0406 31.8457 101.529 30.4118 102.369 29.3465C102.519 29.155 102.269 28.9803 102.071 29.1276C101.66 29.3587 100.76 29.6659 100.276 29.8314C98.9312 30.2911 97.2753 30.6319 96.3906 30.618L89.6007 16.1648L76.1893 44.3044H77.8447L82.7242 34.1989C85.911 32.2678 90.7289 32.4671 94.7698 32.572L100.251 44.3044H102.821L97.1383 32.2086Z" fill="#B89238"/>
<path d="M8.45819 30.5626L13.2081 20.7248L18.7439 32.5732C15.6581 31.0257 12.6934 30.5573 8.45819 30.5626ZM6.71772 30.5324C4.01718 30.4135 1.30766 29.2419 0.933836 29.0247C0.824585 28.9611 0.727941 28.9866 0.677953 29.0481C0.629558 29.1076 0.625066 29.2009 0.696065 29.2796C0.697658 29.2815 0.699252 29.2832 0.700991 29.285C1.03063 29.6655 1.46226 30.0336 1.9678 30.392C2.82456 30.9992 4.09818 31.8587 5.88226 32.2766L0.139526 44.3044H1.82015L7.49667 32.5462C11.288 32.6665 16.2865 32.6342 19.5053 34.2001L24.2243 44.3044H26.7957L13.5756 16.1651C11.2996 20.933 8.99372 25.7643 6.71772 30.5324Z" fill="#B89238"/>
<path d="M41.5782 7.74678H42.7268V1.67557H45.4721V0.72753H38.8329V1.67557H41.5782V7.74678Z" fill="#B89238"/>
<path d="M50.1969 4.5323H54.4514V7.74678H55.5985V0.72753H54.4514V3.58281H50.1969V0.72753H49.0594V7.74678H50.1969V4.5323Z" fill="#B89238"/>
<path d="M65.5561 6.79874H61.2027V4.34162H64.2084V3.38373H61.2027V1.67557H65.5561V0.72753H60.0653V7.74678H65.5561V6.79874Z" fill="#B89238"/>
<path d="M23.8859 75.2772C22.9818 75.2772 22.8443 74.0149 22.8443 72.8014C22.8443 71.7928 22.966 70.4501 23.9353 70.4501C24.7731 70.4501 24.8141 71.3684 24.8222 71.5575H25.3018C25.2859 71.2637 25.2288 70.0095 23.9434 70.0095C22.7375 70.0095 22.3473 71.2637 22.3473 72.8097C22.3473 74.0794 22.437 75.6999 23.8698 75.6999C25.1482 75.6999 25.2937 74.4629 25.3192 74.1208H24.8376C24.8141 74.4296 24.6841 75.2772 23.8859 75.2772Z" fill="#B89238"/>
<path d="M29.3844 72.4858H27.4225V70.0917H26.951V75.6276H27.4225V72.9073H29.3844V75.6276H29.8481V70.0917H29.3844V72.4858Z" fill="#B89238"/>
<path d="M14.7484 75.2846C14.0245 75.2846 13.6663 74.4864 13.6663 72.8097C13.6663 71.1996 14.0405 70.4337 14.7403 70.4337C15.4653 70.4337 15.8309 71.0931 15.8309 72.8269C15.8309 74.4945 15.4971 75.2846 14.7484 75.2846ZM14.7575 70.0099C13.6905 70.0099 13.1776 70.9793 13.1776 72.8269C13.1776 74.6914 13.6093 75.6999 14.7323 75.6999C15.9041 75.6999 16.3204 74.642 16.3204 72.8097C16.3204 70.9462 15.8799 70.0099 14.7575 70.0099Z" fill="#B89238"/>
<path d="M19.3168 72.599H18.5281V70.4983H19.3659C20.0165 70.4983 20.286 70.9143 20.286 71.5004C20.286 72.1678 20.0264 72.599 19.3168 72.599ZM20.7085 74.2189C20.7085 73.4628 20.5629 72.9731 20.0165 72.7941C20.3766 72.6802 20.7657 72.3305 20.7657 71.4924C20.7657 70.6216 20.3109 70.0908 19.4153 70.0908H18.0565V75.6267H18.5281V73.0061H19.2855C20.0829 73.0061 20.237 73.4367 20.237 74.2431V74.4222C20.237 74.8625 20.237 75.3751 20.3109 75.6267H20.7905C20.7181 75.3262 20.7085 74.9109 20.7085 74.4382V74.2189Z" fill="#B89238"/>
<path d="M9.66637 75.2125H9.10432V70.508H9.67448C10.6753 70.508 11.1078 71.1829 11.1078 72.7293C11.1078 74.3337 10.7655 75.2125 9.66637 75.2125ZM9.78837 70.092H8.63269V75.6276H9.69969C11.0746 75.6276 11.5952 74.5853 11.5952 72.7054C11.5952 70.9716 11.009 70.092 9.78837 70.092Z" fill="#B89238"/>
<path d="M79.8641 70.5139H81.1173V75.6267H81.5819V70.5139H82.8361V70.0907H79.8641V70.5139Z" fill="#B89238"/>
<path d="M32.2753 72.9006H34.1478V72.4779H32.2753V70.5149H34.2463V70.0917H31.8124V75.6276H34.2854L34.3506 75.2044H32.2753V72.9006Z" fill="#B89238"/>
<path d="M72.3218 72.9006H74.1931V72.4779H72.3218V70.5149H74.2916V70.0917H71.8583V75.6276H74.331L74.3964 75.2044H72.3218V72.9006Z" fill="#B89238"/>
<path d="M77.281 75.2772C76.3768 75.2772 76.2388 74.0149 76.2388 72.8014C76.2388 71.7928 76.3608 70.4501 77.3301 70.4501C78.1679 70.4501 78.2087 71.3684 78.2173 71.5575H78.6969C78.6808 71.2637 78.6233 70.0095 77.3381 70.0095C76.1333 70.0095 75.7421 71.2637 75.7421 72.8097C75.7421 74.0794 75.8318 75.6999 77.2645 75.6999C78.5427 75.6999 78.6888 74.4629 78.7137 74.1208H78.2328C78.2087 74.4296 78.0791 75.2772 77.281 75.2772Z" fill="#B89238"/>
<path d="M93.8799 72.4283C93.8799 73.3236 93.8877 74.1629 93.929 74.9353H93.9209C93.8468 74.7074 93.6351 74.2112 91.9589 70.0913H91.3474V75.6274H91.7959V73.2661C91.7959 72.2734 91.7959 71.329 91.7549 70.6374H91.763C91.819 70.8403 92.0061 71.3209 93.7502 75.6274H94.3273V70.0913H93.8799V72.4283Z" fill="#B89238"/>
<path d="M88.0404 75.2846C87.3154 75.2846 86.9573 74.4864 86.9573 72.8097C86.9573 71.1996 87.3323 70.4337 88.0323 70.4337C88.7568 70.4337 89.1232 71.0931 89.1232 72.8269C89.1232 74.4945 88.7895 75.2846 88.0404 75.2846ZM88.0484 70.0099C86.9827 70.0099 86.4696 70.9793 86.4696 72.8269C86.4696 74.6914 86.9001 75.6999 88.0243 75.6999C89.1955 75.6999 89.6112 74.642 89.6112 72.8097C89.6112 70.9462 89.1709 70.0099 88.0484 70.0099Z" fill="#B89238"/>
<path d="M84.2626 75.6276H84.7344V70.092H84.2626V75.6276Z" fill="#B89238"/>
<path d="M68.4443 70.0917H67.9725V75.6276H70.365L70.4475 75.2045H68.4443V70.0917Z" fill="#B89238"/>
<path d="M39.6718 70.5139H40.9242V75.6267H41.3887V70.5139H42.6425V70.0907H39.6718V70.5139Z" fill="#B89238"/>
<path d="M44.5327 72.9006H46.4043V72.4779H44.5327V70.5149H46.5031V70.0917H44.0692V75.6276H46.5423L46.6079 75.2044H44.5327V72.9006Z" fill="#B89238"/>
<path d="M37.2594 72.4931C36.5515 72.151 36.2919 71.8824 36.2919 71.3044C36.2919 70.8325 36.5362 70.4253 37.1217 70.4253C37.8789 70.4253 37.9595 71.1336 37.9844 71.3866H38.4491C38.4329 70.7593 38.1473 70.0182 37.1458 70.0182C36.2747 70.0182 35.8184 70.6296 35.8184 71.3454C35.8184 72.1357 36.2095 72.5173 37.0491 72.9163C37.8214 73.2912 38.058 73.6163 38.058 74.2507C38.058 74.9688 37.7239 75.2928 37.1136 75.2928C36.471 75.2928 36.1606 74.8132 36.1211 74.2116H35.6493C35.6965 75.0001 36.0466 75.6999 37.0975 75.6999C38.066 75.6999 38.5376 75.0908 38.5376 74.2116C38.5376 73.4213 38.2209 72.9573 37.2594 72.4931Z" fill="#B89238"/>
<path d="M64.5586 70.0917H64.0868V75.6276H66.4804L66.5629 75.2045H64.5586V70.0917Z" fill="#B89238"/>
<path d="M60.7806 75.2846C60.0563 75.2846 59.6986 74.4864 59.6986 72.8097C59.6986 71.1996 60.0725 70.4337 60.7722 70.4337C61.4976 70.4337 61.8634 71.0931 61.8634 72.8269C61.8634 74.4945 61.5287 75.2846 60.7806 75.2846ZM60.7895 70.0099C59.7223 70.0099 59.2098 70.9793 59.2098 72.8269C59.2098 74.6914 59.641 75.6999 60.7646 75.6999C61.9362 75.6999 62.3522 74.642 62.3522 72.8097C62.3522 70.9462 61.912 70.0099 60.7895 70.0099Z" fill="#B89238"/>
<path d="M49.3879 72.599H48.5972V70.4983H49.4358C50.0876 70.4983 50.3561 70.9143 50.3561 71.5004C50.3561 72.1678 50.0957 72.599 49.3879 72.599ZM50.7793 74.2189C50.7793 73.4628 50.6321 72.9731 50.0876 72.7941C50.4458 72.6802 50.8361 72.3305 50.8361 71.4924C50.8361 70.6216 50.3803 70.0908 49.4853 70.0908H48.1259V75.6267H48.5972V73.0061H49.3546C50.1521 73.0061 50.3075 73.4367 50.3075 74.2431V74.4222C50.3075 74.8625 50.3075 75.3751 50.3803 75.6267H50.8602C50.7877 75.3262 50.7793 74.9109 50.7793 74.4382V74.2189Z" fill="#B89238"/>
<path d="M56.2924 75.2772C55.3883 75.2772 55.2506 74.0149 55.2506 72.8014C55.2506 71.7928 55.3722 70.4501 56.3415 70.4501C57.1795 70.4501 57.2206 71.3684 57.2287 71.5575H57.7083C57.6922 71.2637 57.6351 70.0095 56.3499 70.0095C55.144 70.0095 54.7538 71.2637 54.7538 72.8097C54.7538 74.0794 54.8433 75.6999 56.2763 75.6999C57.5544 75.6999 57.7002 74.4629 57.7256 74.1208H57.2438C57.2206 74.4296 57.0905 75.2772 56.2924 75.2772Z" fill="#B89238"/>
<path d="M5.08938 54.7736V53.4998H6.8142C7.57721 53.4998 7.96871 53.6056 7.96871 54.1363C7.96871 54.6672 7.57721 54.7736 6.8142 54.7736H5.08938ZM6.69495 55.3972H7.08645C8.20083 55.3972 8.76476 55.0186 8.76476 54.1363C8.76476 53.2477 8.20083 52.8691 7.08645 52.8691H4.33289V57.5329H5.08938V55.3972H5.67345L7.81571 57.5329H8.88401L6.69495 55.3972Z" fill="#B89238"/>
<path d="M14.8713 53.4998V52.8691H11.2225V57.5329H14.8713V56.9029H11.979V55.2707H13.9761V54.6342H11.979V53.4998H14.8713Z" fill="#B89238"/>
<path d="M19.4653 54.8986C18.4567 54.7327 17.8993 54.5868 17.8993 54.1026C17.8993 53.6652 18.3705 53.3929 19.1004 53.3929C19.8167 53.3929 20.3476 53.6917 20.4402 54.3748L21.1636 54.1091C21.0308 53.3067 20.3009 52.7758 19.1069 52.7758C17.9324 52.7758 17.1033 53.3332 17.1033 54.1162C17.1033 55.0582 17.9525 55.3167 18.9611 55.4892C19.9625 55.6551 20.487 55.7679 20.487 56.2987C20.487 56.816 19.9955 57.0013 19.1931 57.0013C18.4036 57.0013 17.8066 56.7033 17.6672 56.0466L16.9374 56.3182C17.0904 57.028 17.8331 57.6257 19.1802 57.6257C20.334 57.6257 21.2829 57.214 21.2829 56.2722C21.2829 55.3297 20.4669 55.0711 19.4653 54.8986Z" fill="#B89238"/>
<path d="M24.4448 52.8691H23.6884V57.5329H24.4448V52.8691Z" fill="#B89238"/>
<path d="M28.7312 56.9029H28.0415V53.4934H28.7312C29.78 53.4934 30.6486 53.8383 30.6486 55.1981C30.6486 56.5581 29.78 56.9029 28.7312 56.9029ZM28.7714 52.8692H27.285V57.5329H28.7714C30.1515 57.5329 31.4583 57.1019 31.4583 55.1981C31.4583 53.3008 30.1515 52.8692 28.7714 52.8692Z" fill="#B89238"/>
<path d="M37.6584 53.4996V52.8689H34.0096V57.5328H37.6584V56.9028H34.7661V55.2705H36.7632V54.634H34.7661V53.4996H37.6584Z" fill="#B89238"/>
<path d="M44.5081 52.8689H43.7524V56.5443H43.7322L41.0124 52.8689H40.123V57.5328H40.8795V53.8574H40.8995L43.6727 57.5328H44.5081V52.8689Z" fill="#B89238"/>
<path d="M49.5067 53.3929C50.2431 53.3929 50.7339 53.7844 50.9127 54.4345L51.6757 54.2291C51.3969 53.3599 50.7202 52.7758 49.5067 52.7758C48.1268 52.7758 47.0585 53.612 47.0585 55.2104C47.0585 56.796 48.1268 57.6257 49.5067 57.6257C50.7202 57.6257 51.3969 57.0416 51.6757 56.1659L50.9127 55.9669C50.7339 56.6171 50.2431 57.0015 49.5067 57.0015C48.5448 57.0015 47.8609 56.3519 47.8609 55.2104C47.8609 54.0561 48.5448 53.3929 49.5067 53.3929Z" fill="#B89238"/>
<path d="M54.2255 57.5329H57.8742V56.9029H54.982V55.2707H56.979V54.6342H54.982V53.4998H57.8742V52.8691H54.2255V57.5329Z" fill="#B89238"/>
<path d="M62.4693 54.8986C61.4606 54.7327 60.9032 54.5868 60.9032 54.1026C60.9032 53.6652 61.3744 53.3929 62.1043 53.3929C62.8206 53.3929 63.3515 53.6917 63.4441 54.3748L64.1676 54.1091C64.0347 53.3067 63.3047 52.7758 62.1108 52.7758C60.9363 52.7758 60.1072 53.3332 60.1072 54.1162C60.1072 55.0582 60.9563 55.3167 61.965 55.4892C62.9664 55.6551 63.4908 55.7679 63.4908 56.2987C63.4908 56.816 62.9996 57.0013 62.197 57.0013C61.4075 57.0013 60.8105 56.7033 60.6711 56.0466L59.9413 56.3182C60.0943 57.028 60.837 57.6257 62.1841 57.6257C63.3379 57.6257 64.2868 57.214 64.2868 56.2722C64.2868 55.3297 63.4708 55.0711 62.4693 54.8986Z" fill="#B89238"/>
<path d="M72.5535 56.9029H71.8638V53.4934H72.5535C73.6017 53.4934 74.4709 53.8383 74.4709 55.1981C74.4709 56.5581 73.6017 56.9029 72.5535 56.9029ZM72.5936 52.8692H71.1073V57.5329H72.5936C73.9737 57.5329 75.2805 57.1019 75.2805 55.1981C75.2805 53.3008 73.9737 52.8692 72.5936 52.8692Z" fill="#B89238"/>
<path d="M81.9643 55.4095V52.8685H81.2013V55.217C81.2013 56.0403 81.0361 57.0015 79.7954 57.0015C78.5548 57.0015 78.3823 56.0403 78.3823 55.217V52.8685H77.6259V55.4095C77.6259 56.6372 78.2099 57.6257 79.7954 57.6257C81.3809 57.6257 81.9643 56.6372 81.9643 55.4095Z" fill="#B89238"/>
<path d="M86.4198 54.7863H85.3581V53.486H86.4393C87.0362 53.486 87.5736 53.5858 87.5736 54.1096C87.5736 54.5874 87.0959 54.7863 86.4198 54.7863ZM87.9982 56.1793C87.9982 56.7238 87.5607 56.9157 86.5786 56.9157H85.3581V55.4099H86.6318C87.4479 55.4099 87.9982 55.5823 87.9982 56.1793ZM88.3503 53.9702C88.3503 53.2143 87.7065 52.8689 86.5456 52.8689H84.6016V57.5328H86.6583C88.0513 57.5328 88.8013 57.1749 88.8013 56.2194C88.8013 55.2841 87.9717 55.0787 87.3617 55.052V55.032C87.8991 54.9393 88.3503 54.5937 88.3503 53.9702Z" fill="#B89238"/>
<path d="M92.1221 55.9876L93.1373 53.6586H93.1638L94.1789 55.9876H92.1221ZM92.7594 52.8691L90.6229 57.5329H91.4526L91.857 56.5976H94.4441L94.8556 57.5329H95.6847L93.5424 52.8691H92.7594Z" fill="#B89238"/>
<path d="M97.87 57.5329H98.6265V52.8691H97.87V57.5329Z" fill="#B89238"/>
<path d="M65.371 58.3944L65.9245 58.6052L66.847 56.8656L66.1091 56.5229L65.371 58.3944Z" fill="#B89238"/>
</svg>
