<svg width="75" height="58" viewBox="0 0 75 58" fill="none" xmlns="http://www.w3.org/2000/svg">
<path d="M27.3132 10.6155L35.7705 28.7229C35.7085 28.7259 35.641 28.729 35.5681 28.7321C24.9516 29.194 20.3297 29.2559 18.3332 29.2093L27.3132 10.6155ZM47.3905 0.00019455L44.5038 6.05215L56.6052 31.9173C50.1273 29.2603 46.5832 28.6928 41.4369 28.5032L28.0444 0.000583649L14.2322 28.9596C14.218 28.9579 14.2033 28.9565 14.1874 28.954C7.37818 28.805 2.88513 26.4355 2.84951 26.4165C2.46802 26.1957 2.11909 26.3171 1.94175 26.5362C1.73626 26.7888 1.75541 27.1452 2.02084 27.4384C2.09094 27.5139 2.26253 27.6985 2.33071 27.7684C2.84032 28.3008 3.3913 28.783 4.06235 29.2853C4.18626 29.3792 4.31189 29.4736 4.44748 29.5711L4.44806 29.5718C5.95276 30.647 8.45658 32.1197 11.8387 33.0263C11.9676 33.0606 12.1001 33.0945 12.2338 33.1282L0.615723 57.4678H4.67557L16.141 33.7361C21.3001 34.3843 27.4844 34.4096 34.5278 33.8121C35.7318 33.7035 36.9127 33.6281 38.0424 33.5871L49.1937 57.4678H55.0387L43.5863 33.0884C46.6359 32.8392 54.2726 33.6612 58.3411 35.6412L68.5392 57.4678H74.3842L47.3905 0.00019455Z" fill="#AB8456"/>
</svg>
