<svg width="276" height="57" viewBox="0 0 276 57" fill="none" xmlns="http://www.w3.org/2000/svg">
<g clip-path="url(#clip0_1_797)">
<path d="M46.6936 34.5552V50.9998H48.2692C50.5192 50.9998 52.0085 50.8029 53.0498 49.6076C54.2315 48.2387 54.6254 46.0636 54.6254 42.9603C54.6254 36.9975 53.6973 34.5552 49.2836 34.5552H46.699H46.6936ZM41.6055 50.9998H44.3357V34.5552H41.6055V34.0911H49.4509C54.0319 34.0911 57.2963 37.56 57.2963 42.665C57.2963 45.8667 56.0283 48.5528 53.9779 50.1185C52.4293 51.2905 50.7135 51.4639 48.3501 51.4639H41.6055V50.9998Z" fill="#3C4617"/>
<path d="M61.8505 45.7216C61.8505 49.5328 62.3847 51.3423 64.721 51.3423C67.0574 51.3423 67.5916 49.5328 67.5916 45.7216C67.5916 41.9105 67.0304 40.101 64.721 40.101C62.4116 40.101 61.8505 41.9339 61.8505 45.7216ZM69.9225 45.7216C69.9225 49.1906 67.4728 51.7595 64.721 51.7595C61.9692 51.7595 59.5195 49.1906 59.5195 45.7216C59.5195 42.2527 61.9638 39.7119 64.721 39.7119C67.4782 39.7119 69.9225 42.2527 69.9225 45.7216Z" fill="#3C4617"/>
<path d="M79.0367 39.7127C80.0511 39.7127 80.9252 40.4205 80.9252 41.4472C80.9252 42.1316 80.418 42.6425 79.6572 42.6425C78.9827 42.6425 78.5025 42.23 78.5025 41.6394C78.5025 41.0487 78.9503 40.6127 79.5708 40.6127C79.8568 40.6127 80.132 40.7112 80.418 40.9315C80.1374 40.369 79.5978 40.1018 78.9018 40.1018C77.2992 40.1018 75.7776 42.2535 75.7776 45.6755V51.0711H77.7471V51.4649H71.7578V51.0711H73.7003V40.369H71.7578V39.9799H75.6643L75.7776 42.7879C76.4251 40.7628 77.5205 39.708 79.0367 39.708" fill="#3C4617"/>
<path d="M87.6077 51.7556C84.8829 51.7556 82.4062 49.1867 82.4062 45.7412C82.4062 43.8614 83.221 42.0988 84.6563 40.8565C85.552 40.0737 86.5933 39.708 87.8883 39.708C89.7175 39.708 91.1797 41.0018 91.1797 42.6144C91.1797 43.566 90.5592 44.1239 89.7175 44.1239C88.9567 44.1239 88.3955 43.6129 88.3955 42.9801C88.3955 42.3472 88.9297 41.8316 89.6905 41.8316C90.0844 41.8316 90.3919 41.9816 90.6995 42.2722C90.3919 40.8799 89.3236 40.1018 87.8613 40.1018C85.1041 40.1018 84.7426 42.1316 84.7426 46.2334C84.7426 49.6789 85.3307 51.3149 87.6941 51.3149C89.8038 51.3149 91.3794 49.7773 91.6006 47.0865H92.0484C91.7732 50.068 90.079 51.7556 87.6077 51.7556Z" fill="#3C4617"/>
<path d="M100.714 40.3209C98.9172 40.3209 97.2553 42.3741 97.2553 45.693V51.0699H99.1924V51.4637H93.2031V51.0699H95.1726V34.5033H93.2031V34.0908H97.2499V43.0819C97.8704 40.9068 99.4136 39.7114 101.243 39.7114C103.072 39.7114 104.534 41.0803 104.534 43.5226V51.0699H106.477V51.4637H100.487V51.0699H102.457V42.6882C102.457 41.099 101.863 40.3162 100.714 40.3162" fill="#3C4617"/>
<path d="M115.44 45.0364C115.467 44.5677 115.467 44.127 115.467 43.7379C115.467 41.2206 114.933 40.0955 113.05 40.0955C111.166 40.0955 110.319 41.6612 110.238 45.0317H115.44V45.0364ZM117.636 47.9428C117.129 50.3852 115.472 51.7587 113.276 51.7587C110.271 51.7587 107.875 49.1663 107.875 45.6505C107.875 43.8926 108.549 42.3503 109.931 41.0096C110.832 40.1283 111.9 39.7158 113.082 39.7158C115.553 39.7158 117.582 41.8394 117.69 45.4349H110.211C110.184 45.8709 110.157 46.3162 110.157 46.7006C110.157 49.8554 111.112 51.318 113.476 51.318C115.192 51.318 116.681 50.0945 117.161 47.9475H117.641L117.636 47.9428Z" fill="#3C4617"/>
<path d="M125.003 51.3415C126.438 51.3415 127.506 50.3617 127.506 49.1195C127.506 47.5538 126.071 46.9444 123.654 45.8709C121.603 44.9427 120.335 44.3567 120.335 42.5988C120.335 40.8409 121.771 39.7158 123.6 39.7158C124.614 39.7158 125.596 40.1565 126.551 41.0565L128.04 39.983H128.094V44.2583H127.787C127.085 41.6191 125.364 40.1283 123.594 40.1283C122.467 40.1283 121.684 40.7846 121.684 41.6191C121.684 43.0113 122.947 43.4754 124.803 44.2817C127.387 45.4068 128.742 46.2834 128.742 48.2382C128.742 50.193 127.112 51.7587 125.03 51.7587C123.794 51.7587 122.612 51.2196 121.657 50.1695L120.362 51.5102H120.055V46.7709H120.362C121.204 49.7289 123.006 51.3415 125.003 51.3415Z" fill="#3C4617"/>
<path d="M130.09 40.3673V39.9782H132.227V36.4858C133.209 36.3405 133.883 35.8249 134.309 34.9717V39.9829H136.786V40.372H134.309V49.8038C134.309 50.8022 134.482 51.2663 135.291 51.2663C136.36 51.2663 137.147 50.385 137.288 48.749H137.741C137.574 50.7319 136.586 51.7586 134.93 51.7586C133.128 51.7586 132.227 50.9288 132.227 49.2928V40.372H130.09V40.3673Z" fill="#3C4617"/>
<path d="M146.963 45.0364C146.99 44.5677 146.99 44.127 146.99 43.7379C146.99 41.2206 146.456 40.0955 144.573 40.0955C142.69 40.0955 141.848 41.6612 141.756 45.0317H146.963V45.0364ZM149.159 47.9428C148.652 50.3852 146.996 51.7587 144.8 51.7587C141.789 51.7587 139.398 49.1663 139.398 45.6505C139.398 43.8926 140.073 42.3503 141.449 41.0096C142.35 40.1283 143.418 39.7158 144.6 39.7158C147.071 39.7158 149.1 41.8394 149.208 45.4349H141.729C141.702 45.8709 141.67 46.3162 141.67 46.7006C141.67 49.8554 142.625 51.318 144.988 51.318C146.704 51.318 148.194 50.0945 148.668 47.9475H149.149L149.159 47.9428Z" fill="#3C4617"/>
<path d="M158.265 39.7107C159.279 39.7107 160.148 40.4186 160.148 41.4452C160.148 42.1296 159.641 42.6406 158.88 42.6406C158.205 42.6406 157.731 42.2281 157.731 41.6374C157.731 41.0468 158.178 40.6108 158.799 40.6108C159.085 40.6108 159.36 40.7092 159.641 40.9296C159.355 40.367 158.82 40.0998 158.124 40.0998C156.522 40.0998 155 42.2515 155 45.6736V51.0692H156.97V51.463H150.98V51.0692H152.923V40.367H150.98V39.9779H154.887L155 42.7859C155.648 40.7608 156.743 39.7061 158.259 39.7061" fill="#3C4617"/>
<path d="M184.882 33.8182L182.519 41.6842H182.125C182.184 41.1733 182.184 40.6576 182.184 40.0951C182.184 36.2605 180.943 34.2541 178.758 34.2541C177.209 34.2541 175.747 35.3792 174.366 37.6012C172.089 41.2389 170.994 44.6891 170.994 47.6939C170.994 50.0659 172.202 51.2848 174.452 51.2848C177.182 51.2848 179.432 49.2831 181.289 45.2001L181.796 45.3454C179.853 49.5972 177.382 51.7489 174.598 51.7489C171.172 51.7489 168.781 49.2081 168.781 45.4907C168.781 43.489 169.483 41.2905 170.918 39.1153C173.195 35.6464 176.233 33.8135 178.736 33.8135C179.859 33.8135 180.706 34.2307 181.607 35.0604C182.114 35.5245 182.362 35.8948 182.762 35.8948C183.436 35.8948 183.97 35.1354 184.418 33.8182H184.898H184.882Z" fill="#3C4617"/>
<path d="M188.433 41.4175C187.138 43.1754 186.604 44.788 186.097 46.1802C185.563 47.6944 185.342 48.9179 185.342 49.6257C185.342 50.6758 186.07 51.3133 187.138 51.3133C188.072 51.3133 188.827 50.8024 189.502 49.7523C191.698 46.3068 192.513 43.3254 192.513 41.8628C192.513 40.7378 191.838 40.1002 190.683 40.1002C189.896 40.1002 189.081 40.5643 188.433 41.4222M194.11 43.7192C194.11 45.2568 193.608 46.8178 192.647 48.2616C191.099 50.5352 189.048 51.7587 187.219 51.7587C185.39 51.7587 183.68 50.043 183.68 47.5538C183.68 45.8193 184.414 43.8926 185.816 42.205C187.138 40.5924 189.054 39.7158 190.656 39.7158C192.593 39.7158 194.11 41.2534 194.11 43.7239" fill="#3C4617"/>
<path d="M196.861 50.7035C196.861 51.0925 197.114 51.341 197.449 51.341C198.463 51.341 199.699 49.8503 201.474 46.9439L201.868 47.1173C200.066 50.1456 198.663 51.7582 197.508 51.7582C196.499 51.7582 195.625 50.7785 195.625 49.2643C195.625 48.5752 195.911 47.4783 196.499 45.9641L200.298 36.1433C200.497 35.6558 200.605 35.3135 200.605 35.0698C200.605 34.6291 200.265 34.5072 199.31 34.5072H198.183L198.323 34.0947H203.103L197.114 49.705C196.942 50.1175 196.861 50.4597 196.861 50.7082" fill="#3C4617"/>
<path d="M205.329 50.7035C205.329 51.0925 205.583 51.341 205.917 51.341C206.932 51.341 208.168 49.8503 209.943 46.9439L210.337 47.1173C208.54 50.1456 207.132 51.7582 205.982 51.7582C204.968 51.7582 204.094 50.7785 204.094 49.2643C204.094 48.5752 204.374 47.4783 204.968 45.9641L208.766 36.1433C208.966 35.6558 209.079 35.3135 209.079 35.0698C209.079 34.6291 208.745 34.5072 207.784 34.5072H206.662L206.802 34.0947H211.583L205.594 49.705C205.421 50.1175 205.34 50.4597 205.34 50.7082" fill="#3C4617"/>
<path d="M219.894 41.4417C219.894 40.5651 219.387 40.0963 218.653 40.0963C217.023 40.0963 215.502 42.098 214.067 46.1107C217.698 45.7169 219.889 43.5934 219.889 41.4417M221.291 46.8889C219.381 50.1422 217.406 51.7548 215.102 51.7548C212.939 51.7548 211.477 50.2359 211.477 47.8452C211.477 46.2795 212.065 44.6434 213.246 43.1809C215.102 40.8604 217.212 39.7119 218.647 39.7119C220.196 39.7119 221.378 40.7385 221.378 42.0558C221.378 44.1559 218.788 45.9138 213.926 46.5279C213.473 47.6249 213.252 48.553 213.252 49.3124C213.252 50.6813 213.872 51.3422 215.194 51.3422C217.218 51.3422 219.047 49.8047 220.876 46.7482L221.297 46.8936L221.291 46.8889Z" fill="#3C4617"/>
<path d="M232.073 46.8928C230.19 50.118 228.08 51.7587 226.057 51.7587C224.033 51.7587 222.625 50.1461 222.625 47.6522C222.625 46.2552 223.073 44.8161 223.942 43.4754C225.549 41.0331 227.853 39.7158 229.791 39.7158C231.479 39.7158 232.461 40.5971 232.461 42.0597C232.461 43.0863 231.706 43.8411 230.692 43.8411C230.044 43.8411 229.596 43.4238 229.596 42.8144C229.596 42.205 229.99 41.8113 230.832 41.469C231.285 41.2722 231.539 41.2018 231.539 40.93C231.539 40.5127 230.918 40.1002 229.936 40.1002C228.954 40.1002 228.021 40.5643 227.319 41.4456C226.138 42.9129 225.463 44.8161 224.762 47.16C224.481 48.0929 224.368 48.8241 224.368 49.3585C224.368 50.6524 224.983 51.3368 226.138 51.3368C227.913 51.3368 229.85 49.7992 231.652 46.7428L232.073 46.8881V46.8928Z" fill="#3C4617"/>
<path d="M239.296 39.9786H242.058L241.886 40.4895H239.101L235.556 49.701C235.389 50.1135 235.303 50.4557 235.303 50.7042C235.303 51.0933 235.556 51.3417 235.896 51.3417C236.905 51.3417 238.146 49.851 239.916 46.9446L240.283 47.118C238.448 50.1979 237.159 51.7589 235.837 51.7589C234.855 51.7589 234.008 50.8776 234.008 49.6072C234.008 48.9697 234.315 47.7228 234.99 45.9649L237.1 40.4942H234.763L234.936 39.9833H237.267L239.123 35.2393H241.119L239.29 39.9833L239.296 39.9786Z" fill="#3C4617"/>
<path d="M247.601 37.3394C246.867 37.3394 246.414 36.9222 246.414 36.2612C246.414 35.483 247.175 34.7939 247.989 34.7939C248.718 34.7939 249.198 35.2299 249.198 35.8956C249.198 36.6784 248.437 37.3347 247.595 37.3347M245.739 39.7067C246.781 39.7067 247.509 40.5646 247.509 42.0787C247.509 43.321 246.889 44.7179 245.934 46.4759C244.919 48.3322 244.05 49.551 244.05 50.4558C244.05 51.0417 244.304 51.3371 244.784 51.3371C245.853 51.3371 247.342 49.7713 248.837 46.6446L249.257 46.7946C247.709 50.1136 246.079 51.7543 244.898 51.7543C243.829 51.7543 242.928 50.6761 242.928 49.1385C242.928 47.7697 243.603 46.6446 244.309 45.3789C245.604 43.0585 246.527 41.6381 246.527 40.8083C246.527 40.3677 246.22 40.0724 245.799 40.0724C244.73 40.0724 243.581 41.3943 241.973 43.9304L241.547 43.7382C243.236 41.0755 244.471 39.7067 245.739 39.7067Z" fill="#3C4617"/>
<path d="M255.018 41.4175C253.723 43.1754 253.189 44.788 252.681 46.1802C252.147 47.6944 251.926 48.9179 251.926 49.6257C251.926 50.6758 252.654 51.3133 253.723 51.3133C254.651 51.3133 255.412 50.8024 256.086 49.7523C258.282 46.3068 259.097 43.3254 259.097 41.8628C259.097 40.7378 258.422 40.1002 257.268 40.1002C256.48 40.1002 255.66 40.5643 255.018 41.4222M260.699 43.7192C260.699 45.2568 260.192 46.8178 259.237 48.2616C257.689 50.5352 255.638 51.7587 253.815 51.7587C251.991 51.7587 250.27 50.043 250.27 47.5538C250.27 45.8193 251.003 43.8926 252.412 42.205C253.734 40.5924 255.644 39.7158 257.246 39.7158C259.189 39.7158 260.705 41.2534 260.705 43.7239" fill="#3C4617"/>
<path d="M266.408 42.3707C266.63 41.7613 266.802 41.269 266.802 40.9081C266.802 40.3971 266.522 40.0783 266.128 40.0783C265.173 40.0783 263.964 41.7378 262.335 45.0614L261.887 44.9396C263.662 41.4706 264.871 39.6846 266.133 39.6846C267.094 39.6846 267.795 40.5659 267.795 41.9581C267.795 42.8629 267.487 44.0864 267.007 45.6708C269.004 41.7144 270.547 39.7314 272.068 39.7314C273.164 39.7314 274.065 40.6596 274.065 42.1503C274.065 43.2988 273.612 44.4005 273.083 45.6474C272.095 47.8928 271.194 49.4351 271.194 50.5555C271.194 51.043 271.421 51.2868 271.842 51.2868C272.964 51.2868 273.838 49.7961 275.468 46.9131L275.862 47.0819C274.178 50.1617 273.137 51.7509 271.815 51.7509C270.747 51.7509 269.818 50.8227 269.818 49.4023C269.818 48.6476 270.045 47.6163 270.552 46.5428L272.187 43.1254C272.64 42.1972 272.802 41.4144 272.802 41.0018C272.802 40.4159 272.549 40.144 272.047 40.144C270.331 40.144 267.995 43.9082 264.957 51.4602H262.933L266.419 42.3707H266.408Z" fill="#3C4617"/>
<path d="M5.93416 31.8221C4.91976 31.2362 3.02586 30.5049 0.144531 30.5049V31.044C2.93952 31.1096 4.79566 32.0425 5.85322 33.4347C7.10503 35.0801 7.60144 38.61 7.60144 43.4853C7.60144 48.3606 7.10503 51.8858 5.85322 53.5359C4.79566 54.9281 2.94492 55.861 0.144531 55.9266V56.461C3.07981 56.461 4.91436 55.7297 5.93416 55.1438C10.4504 52.528 11.8695 47.1933 11.8695 43.4853C11.8695 39.7773 10.445 34.4379 5.93416 31.8268M26.438 31.044V30.5049C23.562 30.5049 21.6627 31.2362 20.6483 31.8221C16.1321 34.4379 14.713 39.7726 14.713 43.4806C14.713 47.1886 16.1375 52.528 20.6483 55.1391C21.6627 55.725 23.5027 56.4563 26.438 56.4563V55.9219C23.643 55.8516 21.7868 54.9234 20.7293 53.5312C19.4829 51.8858 18.9811 48.3606 18.9811 43.4806C18.9811 38.6006 19.4829 35.0755 20.7293 33.43C21.7868 32.0378 23.6376 31.1049 26.438 31.0393" fill="#3C4617"/>
<path d="M9.29657 0.461914L5.85409 9.70618L2.44398 0.461914H0.382812V11.2953H1.45656V1.48853H1.71556L5.37387 11.2953H6.35589L10.025 1.48853H10.2732V11.2953H11.3469V0.461914H9.29657Z" fill="#3C4617"/>
<path d="M19.2726 9.30209V6.88321C17.5136 7.22073 16.3373 7.56293 15.7438 7.90514C15.1503 8.24735 14.8535 8.71144 14.8535 9.29741C14.8535 9.73337 14.9884 10.0709 15.2528 10.3193C15.5172 10.5678 15.8841 10.6897 16.3481 10.6897C16.8122 10.6897 17.287 10.5772 17.751 10.3568C18.2151 10.1318 18.7223 9.78025 19.2726 9.29741M19.4507 11.2897C19.3913 11.0647 19.3536 10.8725 19.3266 10.7084C19.2996 10.549 19.2834 10.3943 19.2726 10.2537C18.7762 10.6569 18.2744 10.9522 17.778 11.1444C17.2816 11.3366 16.7582 11.4303 16.2132 11.4303C15.4902 11.4303 14.9021 11.2381 14.4596 10.8491C14.0118 10.46 13.7852 9.95838 13.7852 9.33491C13.7852 8.48642 14.1952 7.81607 15.0208 7.32855C15.8463 6.84102 17.2708 6.43787 19.2942 6.1191V5.35969C19.2942 4.9706 19.1161 4.65652 18.76 4.42213C18.4039 4.18774 17.9237 4.07055 17.3194 4.07055C16.8337 4.07055 16.4075 4.17368 16.0406 4.38463C15.6737 4.59089 15.3553 4.90966 15.0855 5.33156L14.2492 4.91435C14.6215 4.35182 15.0639 3.94398 15.5711 3.68615C16.0837 3.42833 16.7096 3.30176 17.4597 3.30176C18.3014 3.30176 18.9974 3.49864 19.5424 3.88304C20.0874 4.27212 20.3626 4.76434 20.3626 5.35969V10.2396C20.3626 10.3381 20.3787 10.4787 20.4057 10.6569C20.4327 10.8397 20.4705 11.0459 20.5136 11.285H19.4507V11.2897Z" fill="#3C4617"/>
<path d="M23.1094 11.2948V3.45216H24.1777V4.68504C24.7065 4.23032 25.2299 3.88812 25.7533 3.65842C26.2767 3.42872 26.7947 3.31152 27.3073 3.31152C28.1166 3.31152 28.7263 3.52247 29.131 3.93968C29.5357 4.36158 29.7353 4.99443 29.7353 5.83823V11.2948H28.667V6.16637C28.667 5.38351 28.5429 4.84911 28.2893 4.55847C28.0357 4.26783 27.604 4.12251 26.9889 4.12251C26.5357 4.12251 26.0716 4.24439 25.6022 4.48815C25.1328 4.73192 24.658 5.09756 24.1831 5.5804V11.2948H23.1148H23.1094Z" fill="#3C4617"/>
<path d="M37.3 9.30209V6.88321C35.541 7.22073 34.3647 7.56293 33.7712 7.90514C33.1776 8.25203 32.8809 8.71144 32.8809 9.29741C32.8809 9.73337 33.0157 10.0709 33.2801 10.3193C33.5445 10.5678 33.9114 10.6897 34.3755 10.6897C34.8395 10.6897 35.3143 10.5772 35.7784 10.3568C36.2424 10.1318 36.7496 9.78025 37.3 9.29741M37.478 11.2897C37.4187 11.0647 37.3809 10.8725 37.3539 10.7084C37.3269 10.549 37.3108 10.3943 37.3 10.2537C36.7982 10.6569 36.3018 10.9522 35.8053 11.1444C35.3089 11.3366 34.7856 11.4303 34.2406 11.4303C33.5176 11.4303 32.9348 11.2381 32.487 10.8491C32.0391 10.46 31.8125 9.95838 31.8125 9.33491C31.8125 8.48642 32.2226 7.81607 33.0481 7.32855C33.8737 6.84102 35.2981 6.43787 37.3162 6.1191V5.35969C37.3162 4.9706 37.1381 4.65652 36.782 4.42213C36.4259 4.18774 35.9456 4.07055 35.3413 4.07055C34.8557 4.07055 34.4294 4.17368 34.0625 4.38463C33.6956 4.59089 33.3773 4.90966 33.1075 5.33156L32.2765 4.91435C32.6488 4.35182 33.0913 3.94398 33.5985 3.68615C34.1111 3.42833 34.737 3.30176 35.487 3.30176C36.3287 3.30176 37.0248 3.49864 37.5698 3.88304C38.1147 4.27212 38.3845 4.76434 38.3845 5.35969V10.2396C38.3845 10.3381 38.4007 10.4787 38.4277 10.6569C38.4547 10.8397 38.4924 11.0459 38.5356 11.285H37.478V11.2897Z" fill="#3C4617"/>
<path d="M41.6017 6.03004C41.6017 6.60195 41.8176 7.08948 42.2492 7.48794C42.6809 7.89108 43.2097 8.08797 43.8248 8.08797C44.4399 8.08797 44.9957 7.89577 45.4165 7.50669C45.8374 7.1176 46.0424 6.62539 46.0424 6.03004C46.0424 5.4347 45.832 4.94717 45.4165 4.56277C45.0011 4.18306 44.4723 3.99087 43.8248 3.99087C43.1773 3.99087 42.6863 4.18775 42.2492 4.58621C41.8122 4.98467 41.5963 5.46282 41.5963 6.03004M42.7025 10.7131C42.1899 10.91 41.8068 11.1256 41.5532 11.3694C41.2996 11.6132 41.1701 11.8757 41.1701 12.1569C41.1701 12.5648 41.4183 12.8789 41.9147 13.1133C42.4111 13.343 43.0964 13.4601 43.9705 13.4601C44.8446 13.4601 45.6 13.3336 46.1072 13.0804C46.6144 12.8273 46.868 12.471 46.868 12.0163C46.868 11.5616 46.5658 11.2053 45.9561 11.0084C45.3518 10.8116 44.2618 10.7131 42.7025 10.7131ZM41.6827 8.22391V8.13485C41.3158 7.84421 41.046 7.52544 40.8679 7.18323C40.6899 6.84103 40.5981 6.45663 40.5981 6.03473C40.5981 5.25187 40.9057 4.60027 41.5208 4.07525C42.1359 3.55022 42.9075 3.2877 43.8248 3.2877C44.2511 3.2877 44.6395 3.33927 44.9903 3.43302C45.341 3.53146 45.6755 3.68147 45.9993 3.88773C46.2799 3.64866 46.5712 3.47052 46.8626 3.35802C47.1594 3.24082 47.4777 3.18457 47.8176 3.18457V4.05649H47.6072C47.3644 4.05649 47.154 4.07993 46.9705 4.12681C46.787 4.17369 46.6198 4.244 46.4687 4.34245C46.6629 4.5909 46.8032 4.84873 46.895 5.11593C46.9867 5.38313 47.0353 5.6644 47.0353 5.95973C47.0353 6.80352 46.7439 7.48794 46.1665 8.01297C45.5892 8.53799 44.8392 8.79582 43.9165 8.79582C43.7007 8.79582 43.4795 8.77707 43.2528 8.74426C43.0262 8.71144 42.7888 8.65519 42.546 8.58487C42.2169 8.65988 41.9687 8.75363 41.7906 8.87551C41.6125 8.99271 41.5262 9.12865 41.5262 9.28335C41.5262 9.63493 42.2708 9.84588 43.7546 9.91151C44.2079 9.93026 44.5748 9.94901 44.85 9.96776C45.8212 10.024 46.5658 10.2256 47.0784 10.5678C47.591 10.9053 47.85 11.3741 47.85 11.9601C47.85 12.6773 47.5155 13.2258 46.8356 13.6008C46.1611 13.9758 45.1845 14.1633 43.9111 14.1633C42.7349 14.1633 41.8176 13.9899 41.1593 13.6477C40.501 13.3054 40.1719 12.8273 40.1719 12.2132C40.1719 11.8897 40.2798 11.6038 40.4902 11.3553C40.7061 11.1022 41.0406 10.8678 41.5046 10.6381V10.4834C41.2025 10.4037 40.965 10.2818 40.7978 10.1084C40.6305 9.93964 40.5496 9.73337 40.5496 9.4943C40.5496 9.26929 40.6413 9.05365 40.8194 8.84739C40.9974 8.64113 41.2834 8.43018 41.6719 8.21923" fill="#3C4617"/>
<path d="M54.6701 6.67382C54.6485 5.84878 54.4327 5.20655 54.0172 4.75184C53.6017 4.29244 53.0352 4.06743 52.3121 4.06743C51.5891 4.06743 50.9956 4.29713 50.5369 4.75653C50.0783 5.21593 49.8085 5.85346 49.7222 6.67382H54.6701ZM54.9291 9.03177L55.7222 9.40679C55.323 10.1146 54.8535 10.6303 54.314 10.9491C53.7744 11.2678 53.1107 11.4272 52.3229 11.4272C51.2006 11.4272 50.3049 11.0663 49.6413 10.349C48.9776 9.62711 48.6484 8.65674 48.6484 7.42855C48.6484 6.20036 48.9776 5.15967 49.6413 4.41432C50.2995 3.66897 51.1844 3.29395 52.2906 3.29395C53.3967 3.29395 54.2222 3.6174 54.805 4.269C55.3823 4.9206 55.6737 5.86284 55.6737 7.09572V7.34417H49.7222C49.7276 8.42704 49.9596 9.2474 50.4182 9.81931C50.8769 10.3912 51.5352 10.6772 52.3931 10.6772C52.965 10.6772 53.4506 10.5459 53.8499 10.2881C54.2492 10.0303 54.6107 9.60836 54.9291 9.02708" fill="#3C4617"/>
<path d="M62.8888 9.19521V5.53876C62.4572 5.03717 62.0201 4.66215 61.5831 4.41838C61.146 4.17462 60.7036 4.05274 60.2449 4.05274C59.5111 4.05274 58.9392 4.33869 58.5399 4.91529C58.1352 5.49188 57.9355 6.30755 57.9355 7.3623C57.9355 8.41705 58.1352 9.23272 58.5399 9.80462C58.9392 10.3765 59.5111 10.6672 60.2449 10.6672C60.7197 10.6672 61.1622 10.55 61.5885 10.3156C62.0093 10.0812 62.441 9.70618 62.8888 9.19521ZM62.8888 10.2781H62.8025C62.387 10.6719 61.9554 10.9625 61.5129 11.15C61.0705 11.3375 60.5902 11.4266 60.0777 11.4266C59.1064 11.4266 58.3294 11.0609 57.7413 10.3297C57.1586 9.59836 56.8672 8.60924 56.8672 7.3623C56.8672 6.11535 57.1586 5.13561 57.7413 4.40901C58.324 3.67772 59.1064 3.31207 60.0777 3.31207C60.5902 3.31207 61.0651 3.40583 61.5129 3.59334C61.9554 3.78085 62.387 4.07149 62.8025 4.46995H62.8888V0.461914H63.9626V10.1562C63.9626 10.4937 63.968 10.7375 63.9788 10.8875C63.9896 11.0422 64.0111 11.1781 64.0381 11.3H63.1694L62.8888 10.2828V10.2781Z" fill="#3C4617"/>
<path d="M72.9901 9.19521C73.4325 9.70618 73.8696 10.0812 74.2958 10.3156C74.7221 10.55 75.1646 10.6672 75.634 10.6672C76.3786 10.6672 76.9505 10.3812 77.3498 9.80931C77.7491 9.2374 77.9541 8.42173 77.9541 7.36699C77.9541 6.31224 77.7491 5.49657 77.3498 4.91998C76.9451 4.34338 76.3732 4.05743 75.6394 4.05743C75.1915 4.05743 74.7491 4.17931 74.3174 4.42307C73.8858 4.66215 73.4487 5.04186 72.9955 5.54814V9.20459L72.9901 9.19521ZM71.8516 11.3C71.8731 11.1781 71.8893 11.0422 71.9001 10.8875C71.9109 10.7375 71.9163 10.4937 71.9163 10.1562V0.461914H72.9847V4.46995H73.071C73.4919 4.07618 73.9235 3.78085 74.3606 3.59334C74.7976 3.40583 75.2725 3.31207 75.7851 3.31207C76.7563 3.31207 77.5387 3.67772 78.1322 4.40901C78.7203 5.1403 79.0171 6.12473 79.0171 7.3623C79.0171 8.59987 78.7203 9.58899 78.1322 10.325C77.5441 11.0609 76.7617 11.4266 75.7851 11.4266C75.2725 11.4266 74.7976 11.3328 74.3606 11.15C73.9235 10.9672 73.4919 10.6719 73.071 10.2781H72.9847L72.7095 11.2953H71.8516V11.3Z" fill="#3C4617"/>
<path d="M82.9787 11.2526L79.8438 3.45215H80.9121L83.5668 10.1275L86.2053 3.45215H87.2251L83.8258 11.9136C83.5021 12.7339 83.119 13.3058 82.6873 13.634C82.2556 13.9574 81.6675 14.1215 80.9283 14.1215C80.7664 14.1215 80.6045 14.1215 80.4535 14.1074C80.297 14.0981 80.1459 14.084 79.9948 14.0652V13.3105C80.1189 13.3339 80.243 13.3527 80.3671 13.3621C80.4966 13.3715 80.6207 13.3761 80.7502 13.3761C81.3815 13.3761 81.8671 13.2168 82.2071 12.8933C82.547 12.5698 82.806 12.0261 82.9787 11.262" fill="#3C4617"/>
</g>
<defs>
<clipPath id="clip0_1_797">
<rect width="275.711" height="56" fill="white" transform="translate(0.144531 0.461914)"/>
</clipPath>
</defs>
</svg>
